<svg preserveAspectRatio="xMidYMid meet" data-bbox="0 0 352.827 427.618" xmlns="http://www.w3.org/2000/svg" viewBox="0 0 353 428" height="428" width="353" data-type="ugc" role="presentation" aria-hidden="true" aria-label="">
    <g>
        <path fill="#ffffff" d="m2.05 383.517 26.89-60.329h13.79l26.975 60.329H55.054L32.99 330.255h5.515l-22.149 53.262H2.051Zm13.445-12.928 3.706-10.601h31.026l3.793 10.601H15.495Z"></path>
        <path fill="#ffffff" d="M103.898 384.206c-5.459 0-9.71-1.379-12.755-4.137-3.046-2.815-4.568-6.981-4.568-12.496v-40.679h13.445V367.4c0 1.954.517 3.476 1.551 4.568 1.034 1.034 2.442 1.551 4.223 1.551 2.126 0 3.936-.574 5.43-1.723l3.619 9.48c-1.379.977-3.045 1.724-4.998 2.241a25.196 25.196 0 0 1-5.947.689Zm-24.476-35.68v-10.342h32.146v10.342H79.422Z"></path>
        <path fill="#ffffff" d="M160.915 336.46c3.677 0 6.952.747 9.825 2.241 2.93 1.436 5.228 3.677 6.894 6.722 1.667 2.988 2.5 6.838 2.5 11.549v26.545h-13.445V359.04c0-3.734-.833-6.492-2.499-8.273-1.609-1.781-3.907-2.672-6.895-2.672-2.126 0-4.051.46-5.774 1.379-1.667.862-2.988 2.212-3.965 4.051-.919 1.838-1.379 4.194-1.379 7.067v22.925h-13.445v-63.949h13.445v30.423l-3.016-3.878c1.666-3.103 4.05-5.487 7.153-7.153 3.103-1.667 6.636-2.5 10.601-2.5Z"></path>
        <path fill="#ffffff" d="M226.011 384.206c-5.286 0-9.94-1.034-13.962-3.102-3.965-2.069-7.039-4.884-9.222-8.447-2.183-3.619-3.275-7.727-3.275-12.324 0-4.654 1.063-8.762 3.189-12.324 2.183-3.62 5.142-6.435 8.877-8.446 3.734-2.069 7.957-3.103 12.669-3.103 4.539 0 8.618.977 12.238 2.93 3.677 1.896 6.579 4.654 8.705 8.274 2.125 3.562 3.188 7.843 3.188 12.842 0 .517-.028 1.12-.086 1.809a200.71 200.71 0 0 1-.172 1.81h-37.663v-7.842h30.596l-5.171 2.326c0-2.413-.489-4.51-1.465-6.291-.977-1.781-2.327-3.16-4.051-4.137-1.724-1.034-3.735-1.551-6.033-1.551-2.298 0-4.338.517-6.119 1.551-1.724.977-3.074 2.385-4.051 4.223-.976 1.781-1.465 3.907-1.465 6.378v2.068c0 2.528.546 4.769 1.638 6.723 1.149 1.896 2.729 3.361 4.74 4.395 2.068.977 4.481 1.465 7.239 1.465 2.471 0 4.625-.373 6.464-1.12 1.896-.747 3.62-1.868 5.171-3.361l7.153 7.756c-2.125 2.413-4.797 4.281-8.015 5.602-3.217 1.264-6.923 1.896-11.117 1.896Z"></path>
        <path fill="#ffffff" d="M267.711 383.517V337.15h12.842v13.1l-1.81-3.792c1.379-3.275 3.591-5.746 6.636-7.412 3.045-1.724 6.751-2.586 11.118-2.586v12.411a15.58 15.58 0 0 0-1.551-.086c-.46-.058-.948-.087-1.465-.087-3.678 0-6.665 1.063-8.964 3.189-2.24 2.069-3.361 5.315-3.361 9.739v21.891h-13.445Z"></path>
        <path fill="#ffffff" d="M340.244 383.517v-9.05l-.862-1.982v-16.202c0-2.873-.89-5.114-2.671-6.723-1.724-1.609-4.396-2.413-8.016-2.413-2.47 0-4.912.402-7.325 1.207-2.356.747-4.367 1.781-6.033 3.102l-4.826-9.394c2.528-1.781 5.573-3.16 9.135-4.137a40.914 40.914 0 0 1 10.859-1.465c7.067 0 12.554 1.666 16.461 4.999 3.908 3.332 5.861 8.532 5.861 15.599v26.459h-12.583Zm-14.134.689c-3.62 0-6.722-.603-9.308-1.81-2.585-1.264-4.568-2.959-5.947-5.085-1.379-2.125-2.068-4.51-2.068-7.153 0-2.758.661-5.171 1.982-7.239 1.379-2.069 3.534-3.677 6.464-4.827 2.93-1.206 6.751-1.809 11.462-1.809h12.325v7.842h-10.859c-3.16 0-5.344.517-6.55 1.552-1.149 1.034-1.724 2.327-1.724 3.878 0 1.724.661 3.102 1.982 4.137 1.379.976 3.246 1.465 5.602 1.465 2.241 0 4.252-.517 6.033-1.551 1.781-1.092 3.074-2.672 3.878-4.741l2.069 6.206c-.977 2.987-2.758 5.257-5.344 6.808-2.585 1.552-5.918 2.327-9.997 2.327Z"></path>
        <path fill="#ffffff" d="M5.713 422.669v-14.528H0v-2.709h14.627v2.709H8.914v14.528H5.713Z"></path>
        <path fill="#ffffff" d="M38.312 422.841c-1.461 0-2.742-.287-3.841-.862-1.084-.591-1.93-1.395-2.537-2.413-.59-1.018-.886-2.175-.886-3.472 0-1.313.287-2.47.862-3.472a6.362 6.362 0 0 1 2.413-2.388c1.034-.575 2.208-.862 3.521-.862 1.28 0 2.421.279 3.423.837a6.06 6.06 0 0 1 2.364 2.364c.574 1.018.861 2.216.861 3.595 0 .132-.008.279-.024.443 0 .165-.008.321-.025.468H33.486v-2.044h9.332l-1.206.641c.016-.755-.14-1.42-.468-1.995a3.578 3.578 0 0 0-1.355-1.354c-.558-.328-1.206-.493-1.945-.493-.755 0-1.42.165-1.995.493a3.58 3.58 0 0 0-1.33 1.379c-.311.574-.467 1.256-.467 2.044v.492c0 .788.18 1.486.542 2.093.36.607.87 1.075 1.526 1.404.657.328 1.412.492 2.266.492.738 0 1.403-.115 1.994-.345a4.24 4.24 0 0 0 1.576-1.083l1.65 1.896c-.59.689-1.338 1.223-2.24 1.601-.887.361-1.905.541-3.054.541Z"></path>
        <path fill="#ffffff" d="M70.226 422.841c-1.379 0-2.61-.287-3.693-.862a6.573 6.573 0 0 1-2.512-2.413c-.607-1.018-.911-2.175-.911-3.472 0-1.313.304-2.47.911-3.472a6.397 6.397 0 0 1 2.512-2.388c1.083-.575 2.314-.862 3.693-.862 1.28 0 2.405.263 3.374.788a5.072 5.072 0 0 1 2.24 2.265l-2.363 1.379c-.394-.624-.879-1.083-1.453-1.379a3.84 3.84 0 0 0-1.822-.443c-.755 0-1.437.164-2.044.493a3.516 3.516 0 0 0-1.428 1.428c-.345.607-.517 1.338-.517 2.191 0 .854.172 1.593.517 2.216.344.608.82 1.076 1.428 1.404.607.328 1.289.493 2.044.493a3.83 3.83 0 0 0 1.822-.444c.575-.295 1.059-.755 1.453-1.379l2.364 1.379a5.38 5.38 0 0 1-2.241 2.29c-.969.526-2.093.788-3.374.788Z"></path>
        <path fill="#ffffff" d="M102.587 409.372c1.05 0 1.986.205 2.807.616.837.41 1.494 1.042 1.97 1.896.476.837.714 1.92.714 3.25v7.535H105v-7.141c0-1.166-.279-2.036-.838-2.61-.541-.575-1.305-.862-2.29-.862-.722 0-1.362.148-1.92.443a3.098 3.098 0 0 0-1.305 1.33c-.296.574-.444 1.305-.444 2.191v6.649h-3.078v-18.271h3.079v8.668l-.665-1.084a4.609 4.609 0 0 1 1.994-1.921c.887-.459 1.904-.689 3.054-.689Z"></path>
        <path fill="#ffffff" d="M136.188 409.372c1.05 0 1.986.205 2.807.616.837.41 1.494 1.042 1.97 1.896.476.837.714 1.92.714 3.25v7.535h-3.078v-7.141c0-1.166-.279-2.036-.837-2.61-.542-.575-1.305-.862-2.29-.862-.723 0-1.363.148-1.921.443a3.099 3.099 0 0 0-1.305 1.33c-.296.574-.443 1.305-.443 2.191v6.649h-3.078V409.52h2.93v3.546l-.517-1.084a4.604 4.604 0 0 1 1.994-1.921c.887-.459 1.905-.689 3.054-.689Z"></path>
        <path fill="#ffffff" d="M168.262 422.841c-1.346 0-2.545-.287-3.595-.862a6.617 6.617 0 0 1-2.487-2.413c-.608-1.018-.912-2.175-.912-3.472 0-1.313.304-2.47.912-3.472a6.437 6.437 0 0 1 2.487-2.388c1.05-.575 2.249-.862 3.595-.862 1.362 0 2.569.287 3.619.862 1.067.574 1.896 1.362 2.487 2.364.608 1.001.912 2.167.912 3.496 0 1.297-.304 2.454-.912 3.472-.591 1.018-1.42 1.822-2.487 2.413-1.05.575-2.257.862-3.619.862Zm0-2.634c.755 0 1.428-.165 2.019-.493a3.407 3.407 0 0 0 1.379-1.428c.345-.624.517-1.354.517-2.192 0-.853-.172-1.584-.517-2.191a3.407 3.407 0 0 0-1.379-1.428c-.591-.329-1.256-.493-1.995-.493-.755 0-1.428.164-2.019.493-.574.328-1.034.804-1.379 1.428-.345.607-.517 1.338-.517 2.191 0 .838.172 1.568.517 2.192.345.624.805 1.1 1.379 1.428.591.328 1.256.493 1.995.493Z"></path>
        <path fill="#ffffff" d="M194.967 422.669v-18.271h3.078v18.271h-3.078Z"></path>
        <path fill="#ffffff" d="M224.739 422.841c-1.346 0-2.544-.287-3.595-.862a6.617 6.617 0 0 1-2.487-2.413c-.607-1.018-.911-2.175-.911-3.472 0-1.313.304-2.47.911-3.472a6.437 6.437 0 0 1 2.487-2.388c1.051-.575 2.249-.862 3.595-.862 1.363 0 2.569.287 3.62.862 1.067.574 1.896 1.362 2.487 2.364.607 1.001.911 2.167.911 3.496 0 1.297-.304 2.454-.911 3.472-.591 1.018-1.42 1.822-2.487 2.413-1.051.575-2.257.862-3.62.862Zm0-2.634c.755 0 1.428-.165 2.019-.493a3.4 3.4 0 0 0 1.379-1.428c.345-.624.517-1.354.517-2.192 0-.853-.172-1.584-.517-2.191a3.4 3.4 0 0 0-1.379-1.428c-.591-.329-1.255-.493-1.994-.493-.755 0-1.428.164-2.019.493-.575.328-1.035.804-1.379 1.428-.345.607-.517 1.338-.517 2.191 0 .838.172 1.568.517 2.192.344.624.804 1.1 1.379 1.428.591.328 1.255.493 1.994.493Z"></path>
        <path fill="#ffffff" d="M257.404 427.618c-1.215 0-2.405-.164-3.571-.492-1.149-.312-2.093-.772-2.832-1.379l1.379-2.315c.575.476 1.297.854 2.167 1.133a8.454 8.454 0 0 0 2.684.443c1.445 0 2.504-.336 3.177-1.009.673-.657 1.009-1.65 1.009-2.98v-2.339l.247-2.98-.099-2.979v-3.201h2.93v11.154c0 2.381-.607 4.129-1.822 5.245-1.215 1.133-2.971 1.699-5.269 1.699Zm-.394-5.54c-1.248 0-2.381-.263-3.398-.788a6.273 6.273 0 0 1-2.389-2.241c-.575-.952-.862-2.068-.862-3.349 0-1.264.287-2.372.862-3.324a6.084 6.084 0 0 1 2.389-2.216c1.017-.525 2.15-.788 3.398-.788 1.116 0 2.117.222 3.004.665.886.443 1.592 1.133 2.117 2.068.542.936.813 2.134.813 3.595 0 1.461-.271 2.668-.813 3.62-.525.936-1.231 1.633-2.117 2.093-.887.443-1.888.665-3.004.665Zm.468-2.61c.771 0 1.461-.156 2.068-.468a3.547 3.547 0 0 0 1.404-1.33c.344-.574.517-1.231.517-1.97 0-.738-.173-1.387-.517-1.945a3.18 3.18 0 0 0-1.404-1.305c-.607-.312-1.297-.468-2.068-.468-.772 0-1.47.156-2.093.468a3.322 3.322 0 0 0-1.429 1.305c-.328.558-.492 1.207-.492 1.945 0 .739.164 1.396.492 1.97a3.72 3.72 0 0 0 1.429 1.33c.623.312 1.321.468 2.093.468Z"></path>
        <path fill="#ffffff" d="M285.286 422.669V409.52h3.078v13.149h-3.078Zm1.552-15.316c-.575 0-1.051-.181-1.429-.542a1.778 1.778 0 0 1-.541-1.305c0-.525.18-.96.541-1.305.378-.361.854-.542 1.429-.542.574 0 1.042.173 1.403.517.378.329.567.747.567 1.256 0 .542-.181 1.001-.542 1.379-.361.361-.837.542-1.428.542Z"></path>
        <path fill="#ffffff" d="M315.329 422.841c-1.461 0-2.741-.287-3.841-.862-1.084-.591-1.929-1.395-2.536-2.413-.591-1.018-.887-2.175-.887-3.472 0-1.313.287-2.47.862-3.472a6.36 6.36 0 0 1 2.413-2.388c1.034-.575 2.208-.862 3.521-.862 1.281 0 2.422.279 3.423.837a6.064 6.064 0 0 1 2.364 2.364c.575 1.018.862 2.216.862 3.595 0 .132-.008.279-.025.443 0 .165-.008.321-.024.468h-10.958v-2.044h9.332l-1.206.641c.016-.755-.14-1.42-.468-1.995a3.578 3.578 0 0 0-1.354-1.354c-.559-.328-1.207-.493-1.946-.493-.755 0-1.42.165-1.994.493a3.58 3.58 0 0 0-1.33 1.379c-.312.574-.468 1.256-.468 2.044v.492c0 .788.181 1.486.542 2.093.361.607.87 1.075 1.527 1.404.656.328 1.411.492 2.265.492.739 0 1.404-.115 1.995-.345a4.243 4.243 0 0 0 1.576-1.083l1.649 1.896c-.591.689-1.338 1.223-2.24 1.601-.887.361-1.905.541-3.054.541Z"></path>
        <path fill="#ffffff" d="M345.274 422.841c-1.1 0-2.159-.139-3.177-.418-1.001-.296-1.797-.649-2.388-1.059l1.182-2.339c.591.377 1.296.689 2.117.935a8.51 8.51 0 0 0 2.463.37c.968 0 1.666-.132 2.093-.394.443-.263.665-.616.665-1.059 0-.361-.148-.632-.444-.813-.295-.197-.681-.345-1.157-.443a24.387 24.387 0 0 0-1.601-.271 23.326 23.326 0 0 1-1.748-.32 6.708 6.708 0 0 1-1.576-.616 3.39 3.39 0 0 1-1.157-1.108c-.296-.459-.443-1.067-.443-1.822 0-.837.238-1.559.714-2.167.476-.624 1.141-1.1 1.994-1.428.87-.345 1.896-.517 3.078-.517.887 0 1.781.098 2.684.295.903.197 1.65.477 2.241.838l-1.182 2.339a5.961 5.961 0 0 0-1.896-.763 8.085 8.085 0 0 0-1.871-.222c-.936 0-1.634.14-2.093.419-.444.279-.665.632-.665 1.058 0 .394.148.69.443.887.296.197.681.353 1.157.468a16.96 16.96 0 0 0 1.576.295 12.78 12.78 0 0 1 1.749.32 6.725 6.725 0 0 1 1.576.616c.492.246.886.599 1.181 1.059.296.459.444 1.059.444 1.797 0 .821-.247 1.535-.739 2.143-.476.607-1.157 1.083-2.044 1.428-.886.328-1.945.492-3.176.492Z"></path>
        <path fill="url(#b63f92c4-fca7-490d-8115-4279ad7f0a93_comp-kbgakxmn_r_comp-lxkev284)" d="M324 250h-63L128.352 0l29.41.259c27.921 0 44.381 17.58 49.121 26.37l5.946 10.341L324 250Z"></path>
        <path fill="url(#f696d81c-e519-4d66-8da5-bacfae01df7c_comp-kbgakxmn_r_comp-lxkev284)" d="M77.359 250h160.806c-16.339-32.472-42.658-49.121-42.658-49.121H88.734l75.295-133.92C154.377 48.777 133.523 9.567 128.352 0c2.482 14.478-3.424 29.214-6.526 34.126L47.886 165.46c-2.068 3.792-6.619 12.255-8.273 15.771C23.067 228.18 57.883 246.639 77.359 250Z"></path>
        <path fill-opacity=".2" fill="url(#528d6d8f-5ef6-44a1-bcd7-e9511b6ae28f_comp-kbgakxmn_r_comp-lxkev284)" d="M77.359 250h160.806c-16.339-32.472-42.658-49.121-42.658-49.121H88.734l75.295-133.92C154.377 48.777 133.523 9.567 128.352 0c2.482 14.478-3.424 29.214-6.526 34.126L47.886 165.46c-2.068 3.792-6.619 12.255-8.273 15.771C23.067 228.18 57.883 246.639 77.359 250Z"></path>
        <path fill="url(#426a6b83-72ad-48b6-8de2-853ccd77cd26_comp-kbgakxmn_r_comp-lxkev284)" d="m99.592 194.416-11.054 6.463h106.969c-6.463-3.619-12.151-6.204-12.668-6.463H99.592Z"></path>
        <path fill-opacity=".5" fill="#000000" d="m99.592 194.416-11.054 6.463h106.969c-6.463-3.619-12.151-6.204-12.668-6.463H99.592Z"></path>
        <path fill="url(#60967357-bdd0-48cd-a082-437b96b495b2_comp-kbgakxmn_r_comp-lxkev284)" d="m99.592 194.416 64.116-111.944 59.525 111.944L261 250 164.029 66.96 88.538 200.879l11.054-6.463Z"></path>
        <path fill-opacity=".5" fill="#000000" d="m99.592 194.416 64.116-111.944 59.525 111.944L261 250 164.029 66.96 88.538 200.879l11.054-6.463Z"></path>
        <defs fill="none">
            <linearGradient gradientUnits="userSpaceOnUse" y2="-31.455" x2="313.38" y1="236.847" x1="323.997" id="b63f92c4-fca7-490d-8115-4279ad7f0a93_comp-kbgakxmn_r_comp-lxkev284">
                <stop stop-color="#0047FF"></stop>
                <stop stop-color="#22E3FD" offset="1"></stop>
            </linearGradient>
            <linearGradient gradientUnits="userSpaceOnUse" y2="-31.579" x2="227.861" y1="237.584" x1="238.165" id="f696d81c-e519-4d66-8da5-bacfae01df7c_comp-kbgakxmn_r_comp-lxkev284">
                <stop stop-color="#0047FF"></stop>
                <stop stop-color="#22E3FD" offset="1"></stop>
            </linearGradient>
            <linearGradient gradientUnits="userSpaceOnUse" y2="39.097" x2="168.11" y1="79.797" x1="109.28" id="528d6d8f-5ef6-44a1-bcd7-e9511b6ae28f_comp-kbgakxmn_r_comp-lxkev284">
                <stop stop-opacity="0"></stop>
                <stop offset="1"></stop>
            </linearGradient>
            <linearGradient gradientUnits="userSpaceOnUse" y2="43.861" x2="254.264" y1="240.173" x1="260.72" id="426a6b83-72ad-48b6-8de2-853ccd77cd26_comp-kbgakxmn_r_comp-lxkev284">
                <stop stop-color="#0047FF"></stop>
                <stop stop-color="#22E3FD" offset="1"></stop>
            </linearGradient>
            <linearGradient gradientUnits="userSpaceOnUse" y2="43.861" x2="254.264" y1="240.173" x1="260.72" id="60967357-bdd0-48cd-a082-437b96b495b2_comp-kbgakxmn_r_comp-lxkev284">
                <stop stop-color="#0047FF"></stop>
                <stop stop-color="#22E3FD" offset="1"></stop>
            </linearGradient>
        </defs>
    </g>
</svg>
