<svg preserveAspectRatio="xMidYMid meet" data-bbox="0 0 237.86 67" xmlns="http://www.w3.org/2000/svg" viewBox="0 0 238 67" height="67" width="238" data-type="ugc" role="presentation" aria-hidden="true" aria-label="">
    <g>
        <g clip-path="url(#ae7b990e-41fd-437e-94ab-91ff7e158c98_comp-lk6v3ld3_r_comp-lxk6zore)">
            <path fill="#ffffff" d="M87.15 38.455 99.916 9.86h6.546l12.805 28.595h-6.955L101.838 13.21h2.619L93.942 38.455h-6.791Zm6.383-6.127 1.76-5.025h14.728l1.8 5.025H93.533Z"></path>
            <path fill="#ffffff" d="M132.226 38.782c-2.591 0-4.609-.653-6.055-1.96-1.445-1.335-2.168-3.31-2.168-5.924V11.617h6.382v19.2c0 .925.246 1.647.737 2.164.491.49 1.159.736 2.004.736 1.009 0 1.869-.273 2.578-.817l1.718 4.493c-.655.463-1.445.817-2.373 1.062-.9.218-1.841.327-2.823.327ZM120.607 21.87v-4.902h15.261v4.902h-15.261Z"></path>
            <path fill="#ffffff" d="M156.02 16.151c1.746 0 3.301.354 4.664 1.062 1.391.681 2.482 1.743 3.273 3.187.791 1.416 1.187 3.24 1.187 5.474v12.581h-6.383V26.854c0-1.77-.395-3.077-1.186-3.922-.764-.844-1.855-1.266-3.273-1.266-1.009 0-1.923.218-2.741.654-.792.408-1.419 1.048-1.882 1.92-.437.871-.655 1.988-.655 3.35v10.865h-6.382V8.145h6.382v14.42l-1.432-1.838a8.147 8.147 0 0 1 3.396-3.391c1.473-.79 3.15-1.185 5.032-1.185Z"></path>
            <path fill="#ffffff" d="M183.649 38.782c-2.509 0-4.718-.49-6.628-1.47-1.881-.98-3.341-2.315-4.377-4.004-1.037-1.715-1.555-3.663-1.555-5.841 0-2.206.505-4.153 1.514-5.842a10.818 10.818 0 0 1 4.214-4.003c1.773-.98 3.777-1.47 6.014-1.47 2.155 0 4.091.462 5.81 1.388 1.745.899 3.123 2.206 4.132 3.922 1.009 1.688 1.514 3.717 1.514 6.086 0 .246-.014.532-.041.858-.027.3-.055.586-.082.858h-17.879v-3.717h14.524l-2.455 1.103c0-1.144-.232-2.138-.695-2.982a4.936 4.936 0 0 0-1.923-1.961c-.819-.49-1.773-.735-2.864-.735s-2.06.245-2.905.735c-.818.463-1.459 1.13-1.923 2.002-.464.844-.695 1.851-.695 3.022v.98c0 1.2.259 2.261.777 3.187a5.534 5.534 0 0 0 2.25 2.083c.982.463 2.128.695 3.437.695 1.173 0 2.195-.177 3.068-.531a7.453 7.453 0 0 0 2.455-1.593l3.396 3.676c-1.009 1.144-2.277 2.03-3.805 2.655-1.527.6-3.287.9-5.278.9Z"></path>
            <path fill="#ffffff" d="M200.172 38.455V16.478h6.096v6.21l-.859-1.798c.655-1.552 1.705-2.724 3.15-3.513 1.446-.817 3.205-1.226 5.278-1.226v5.883a7.444 7.444 0 0 0-.736-.041 5.604 5.604 0 0 0-.695-.041c-1.746 0-3.164.504-4.255 1.511-1.064.98-1.596 2.52-1.596 4.616v10.376h-6.383Z"></path>
            <path fill="#ffffff" d="M231.332 38.455v-4.289l-.409-.94v-7.68c0-1.36-.423-2.423-1.268-3.186-.819-.762-2.087-1.143-3.806-1.143-1.172 0-2.332.19-3.477.572-1.118.354-2.073.844-2.864 1.47l-2.291-4.453c1.2-.844 2.645-1.497 4.336-1.96a19.45 19.45 0 0 1 5.156-.695c3.354 0 5.959.79 7.814 2.37 1.855 1.58 2.782 4.044 2.782 7.393v12.541h-5.973Zm-6.71.327c-1.718 0-3.191-.286-4.418-.858-1.228-.599-2.169-1.402-2.824-2.41-.654-1.008-.982-2.138-.982-3.39 0-1.308.314-2.451.941-3.432.655-.98 1.678-1.743 3.069-2.287 1.391-.572 3.205-.858 5.441-.858h5.851v3.717h-5.155c-1.5 0-2.537.245-3.109.736a2.368 2.368 0 0 0-.819 1.838c0 .817.314 1.47.941 1.96.655.463 1.541.695 2.66.695 1.063 0 2.018-.245 2.864-.735.845-.518 1.459-1.267 1.841-2.247l.982 2.941c-.464 1.416-1.31 2.492-2.537 3.227-1.227.735-2.809 1.103-4.746 1.103Z"></path>
            <path fill="#ffffff" d="M90.698 58.599v-8.002h-3.16v-1.86h8.606v1.86h-3.16V58.6h-2.286Z"></path>
            <path fill="#ffffff" d="M105.01 58.711c-.865 0-1.627-.169-2.285-.507-.649-.338-1.153-.798-1.51-1.38-.357-.592-.536-1.264-.536-2.015 0-.76.174-1.432.522-2.014a3.733 3.733 0 0 1 1.453-1.38c.611-.338 1.303-.508 2.074-.508.743 0 1.411.16 2.003.48.602.309 1.077.76 1.425 1.352.348.582.522 1.281.522 2.098 0 .085-.004.183-.014.296l-.028.296h-6.165v-1.282h5.008l-.846.38c0-.394-.08-.737-.24-1.028a1.704 1.704 0 0 0-.663-.676 1.89 1.89 0 0 0-.988-.254c-.376 0-.71.085-1.002.254a1.69 1.69 0 0 0-.663.69c-.16.291-.239.639-.239 1.043v.338c0 .413.089.78.268 1.099.188.31.446.549.775.718.339.16.734.24 1.186.24.404 0 .757-.062 1.058-.184a2.57 2.57 0 0 0 .846-.55l1.171 1.269c-.348.394-.785.7-1.312.915-.527.207-1.133.31-1.82.31Z"></path>
            <path fill="#ffffff" d="M118.608 58.711c-.818 0-1.547-.164-2.186-.493a3.86 3.86 0 0 1-1.51-1.394c-.357-.592-.536-1.264-.536-2.015 0-.76.179-1.432.536-2.014a3.76 3.76 0 0 1 1.51-1.38c.639-.338 1.368-.508 2.186-.508.8 0 1.496.17 2.088.508a3.01 3.01 0 0 1 1.312 1.422l-1.707.916c-.197-.357-.447-.62-.747-.789a1.88 1.88 0 0 0-.96-.253 2.04 2.04 0 0 0-1.016.253 1.9 1.9 0 0 0-.719.718c-.169.31-.254.686-.254 1.127 0 .442.085.817.254 1.127.179.31.419.55.719.718.302.17.64.254 1.016.254.348 0 .668-.08.96-.24.3-.168.55-.436.747-.802l1.707.93a3.097 3.097 0 0 1-1.312 1.422c-.592.329-1.288.493-2.088.493Z"></path>
            <path fill="#ffffff" d="M132.644 50.907c.602 0 1.138.122 1.608.367.48.234.856.6 1.129 1.098.273.489.409 1.118.409 1.888v4.339h-2.201v-4c0-.611-.136-1.062-.409-1.353-.263-.291-.639-.437-1.129-.437-.347 0-.662.075-.944.226-.273.14-.49.361-.65.661-.15.301-.225.686-.225 1.156v3.747h-2.201V48.147h2.201v4.972l-.494-.634a2.811 2.811 0 0 1 1.171-1.17c.508-.272 1.086-.407 1.735-.407Z"></path>
            <path fill="#ffffff" d="M147.195 50.907c.602 0 1.138.122 1.609.367.479.234.856.6 1.128 1.098.273.489.409 1.118.409 1.888v4.339h-2.201v-4c0-.611-.136-1.062-.409-1.353-.263-.291-.639-.437-1.128-.437a1.98 1.98 0 0 0-.946.226c-.272.14-.489.361-.648.661-.151.301-.226.686-.226 1.156v3.747h-2.201V51.02h2.102v2.099l-.395-.634a2.811 2.811 0 0 1 1.171-1.17c.508-.272 1.086-.407 1.735-.407Z"></path>
            <path fill="#ffffff" d="M160.8 58.711c-.809 0-1.529-.169-2.159-.507a3.952 3.952 0 0 1-1.481-1.38c-.358-.592-.536-1.264-.536-2.015 0-.76.178-1.432.536-2.014a3.808 3.808 0 0 1 1.481-1.38c.63-.338 1.35-.508 2.159-.508.799 0 1.514.17 2.144.508.63.328 1.124.784 1.481 1.366.358.582.537 1.258.537 2.028 0 .751-.179 1.423-.537 2.015a3.816 3.816 0 0 1-1.481 1.38c-.63.338-1.345.507-2.144.507Zm0-1.803c.367 0 .696-.084.987-.254a1.82 1.82 0 0 0 .692-.718c.169-.32.254-.695.254-1.127 0-.441-.085-.817-.254-1.127-.17-.31-.4-.55-.692-.718a1.927 1.927 0 0 0-.987-.253c-.367 0-.696.084-.988.253a1.906 1.906 0 0 0-.705.718c-.17.31-.254.686-.254 1.127 0 .432.084.808.254 1.127.178.31.413.55.705.718.292.17.621.254.988.254Z"></path>
            <path fill="#ffffff" d="M171.229 58.599V48.147h2.201v10.452h-2.201Z"></path>
            <path fill="#ffffff" d="M183.881 58.711c-.809 0-1.528-.169-2.159-.507a3.96 3.96 0 0 1-1.481-1.38c-.357-.592-.536-1.264-.536-2.015 0-.76.179-1.432.536-2.014a3.815 3.815 0 0 1 1.481-1.38c.631-.338 1.35-.508 2.159-.508.799 0 1.514.17 2.144.508a3.709 3.709 0 0 1 1.482 1.366c.357.582.536 1.258.536 2.028 0 .751-.179 1.423-.536 2.015a3.812 3.812 0 0 1-1.482 1.38c-.63.338-1.345.507-2.144.507Zm0-1.803c.367 0 .696-.084.988-.254.291-.169.521-.408.691-.718.169-.32.254-.695.254-1.127 0-.441-.085-.817-.254-1.127-.17-.31-.4-.55-.691-.718a1.933 1.933 0 0 0-.988-.253c-.367 0-.696.084-.987.253a1.916 1.916 0 0 0-.706.718c-.169.31-.254.686-.254 1.127 0 .432.085.808.254 1.127.179.31.414.55.706.718.291.17.62.254.987.254Z"></path>
            <path fill="#ffffff" d="M197.88 61.444c-.715 0-1.406-.09-2.074-.268-.658-.169-1.208-.427-1.651-.774l.875-1.578c.32.263.724.47 1.213.62.499.16.988.239 1.468.239.78 0 1.345-.173 1.692-.521.358-.348.537-.864.537-1.55v-1.14l.141-1.902-.028-1.916V51.02h2.088v6.31c0 1.41-.367 2.447-1.101 3.114-.733.667-1.787 1-3.16 1Zm-.339-3.212a4.08 4.08 0 0 1-1.919-.45 3.74 3.74 0 0 1-1.368-1.282c-.339-.554-.508-1.197-.508-1.93 0-.742.169-1.386.508-1.93a3.595 3.595 0 0 1 1.368-1.282 4.08 4.08 0 0 1 1.919-.45c.64 0 1.204.131 1.693.394.489.253.87.652 1.143 1.197.273.536.409 1.226.409 2.07 0 .837-.136 1.527-.409 2.072-.273.535-.654.934-1.143 1.197s-1.053.394-1.693.394Zm.438-1.803c.386 0 .729-.075 1.03-.225a1.772 1.772 0 0 0 .959-1.634c0-.376-.085-.7-.254-.972a1.677 1.677 0 0 0-.705-.648 2.164 2.164 0 0 0-1.03-.24c-.386 0-.729.08-1.03.24-.301.15-.541.366-.72.648a1.806 1.806 0 0 0-.254.972c0 .366.085.69.254.972.179.282.419.502.72.662.301.15.644.225 1.03.225Z"></path>
            <path fill="#ffffff" d="M208.986 58.599V51.02h2.201v7.578h-2.201Zm1.1-8.635c-.404 0-.733-.118-.987-.353a1.141 1.141 0 0 1-.381-.873c0-.347.127-.638.381-.873s.583-.352.987-.352.734.112.988.338c.254.216.381.497.381.845 0 .366-.127.671-.381.915-.245.235-.574.353-.988.353Z"></path>
            <path fill="#ffffff" d="M221.793 58.711c-.866 0-1.628-.169-2.286-.507a3.777 3.777 0 0 1-1.51-1.38c-.357-.592-.536-1.264-.536-2.015 0-.76.174-1.432.522-2.014a3.74 3.74 0 0 1 1.453-1.38c.612-.338 1.303-.508 2.074-.508.743 0 1.411.16 2.004.48.602.309 1.077.76 1.424 1.352.349.582.523 1.281.523 2.098a3.8 3.8 0 0 1-.014.296l-.029.296h-6.165v-1.282h5.009l-.847.38c0-.394-.08-.737-.24-1.028a1.704 1.704 0 0 0-.663-.676 1.887 1.887 0 0 0-.988-.254c-.376 0-.71.085-1.001.254-.282.16-.503.39-.663.69-.16.291-.24.639-.24 1.043v.338c0 .413.089.78.268 1.099.188.31.447.549.776.718.339.16.733.24 1.185.24.404 0 .757-.062 1.058-.184.31-.122.593-.305.847-.55l1.17 1.269c-.348.394-.785.7-1.312.915-.526.207-1.133.31-1.819.31Z"></path>
            <path fill="#ffffff" d="M234.276 58.711a7.71 7.71 0 0 1-1.876-.225c-.593-.16-1.063-.357-1.411-.592l.734-1.577a5.086 5.086 0 0 0 2.638.732c.508 0 .865-.06 1.072-.183.216-.122.325-.291.325-.507 0-.179-.085-.31-.254-.395a1.937 1.937 0 0 0-.649-.21 30.461 30.461 0 0 0-.903-.142c-.32-.047-.644-.108-.974-.183a3.5 3.5 0 0 1-.902-.366 1.907 1.907 0 0 1-.664-.648c-.16-.272-.24-.625-.24-1.056 0-.48.137-.902.41-1.268.282-.367.686-.653 1.213-.86.527-.216 1.157-.324 1.89-.324a7.65 7.65 0 0 1 1.58.17c.536.112.983.276 1.341.492l-.734 1.564a3.577 3.577 0 0 0-1.114-.437 4.789 4.789 0 0 0-1.073-.127c-.489 0-.846.066-1.072.198-.226.131-.338.3-.338.507 0 .188.079.328.239.422.17.094.391.17.664.226.272.056.569.108.888.155.33.037.659.099.988.183.329.084.625.207.889.366.273.15.493.362.663.634.169.263.254.61.254 1.043 0 .47-.141.887-.424 1.253-.282.357-.691.639-1.227.845-.527.207-1.171.31-1.933.31Z"></path>
            <path fill="url(#929fd539-d65a-4a9d-aed6-13ee1b93c728_comp-lk6v3ld3_r_comp-lxk6zore)" d="M77.724 67h-17.38L24.982 0l7.895.07c7.494 0 11.912 4.71 13.184 7.067l1.596 2.771L77.724 67Z"></path>
            <path fill="url(#649776bb-988b-4ffb-8da6-146a7084bcc2_comp-lk6v3ld3_r_comp-lxk6zore)" d="M11.294 67h43.163c-4.386-8.702-11.45-13.164-11.45-13.164h-28.66l20.21-35.89C31.968 13.071 26.37 2.563 24.983 0c.666 3.88-.92 7.83-1.752 9.146L3.383 44.343c-.555 1.016-1.776 3.284-2.22 4.227C-3.278 61.152 6.067 66.1 11.294 67Z"></path>
            <path fill-opacity=".2" fill="url(#713089ef-0e3f-4509-894a-66931f825503_comp-lk6v3ld3_r_comp-lxk6zore)" d="M11.294 67h43.163c-4.386-8.702-11.45-13.164-11.45-13.164h-28.66l20.21-35.89C31.968 13.071 26.37 2.563 24.983 0c.666 3.88-.92 7.83-1.752 9.146L3.383 44.343c-.555 1.016-1.776 3.284-2.22 4.227C-3.278 61.152 6.067 66.1 11.294 67Z"></path>
            <path fill="url(#3413a9de-3590-4af6-a45d-f18324222c14_comp-lk6v3ld3_r_comp-lxk6zore)" d="m17.262 52.103-2.967 1.733h28.712c-1.735-.97-3.261-1.663-3.4-1.733H17.262Z"></path>
            <path fill-opacity=".5" fill="#000000" d="m17.262 52.103-2.967 1.733h28.712c-1.735-.97-3.261-1.663-3.4-1.733H17.262Z"></path>
            <path fill="url(#f946b5e3-3591-4c07-b183-a26714693455_comp-lk6v3ld3_r_comp-lxk6zore)" d="m17.262 52.103 17.21-30 15.977 30L60.345 67 34.558 17.945l-20.263 35.89 2.967-1.732Z"></path>
            <path fill-opacity=".5" fill="#000000" d="m17.262 52.103 17.21-30 15.977 30L60.345 67 34.558 17.945l-20.263 35.89 2.967-1.732Z"></path>
        </g>
        <defs fill="none">
            <linearGradient gradientUnits="userSpaceOnUse" y2="-8.43" x2="74.654" y1="63.475" x1="77.495" id="929fd539-d65a-4a9d-aed6-13ee1b93c728_comp-lk6v3ld3_r_comp-lxk6zore">
                <stop stop-color="#0047FF"></stop>
                <stop stop-color="#22E3FD" offset="1"></stop>
            </linearGradient>
            <linearGradient gradientUnits="userSpaceOnUse" y2="-8.464" x2="51.7" y1="63.673" x1="54.457" id="649776bb-988b-4ffb-8da6-146a7084bcc2_comp-lk6v3ld3_r_comp-lxk6zore">
                <stop stop-color="#0047FF"></stop>
                <stop stop-color="#22E3FD" offset="1"></stop>
            </linearGradient>
            <linearGradient gradientUnits="userSpaceOnUse" y2="10.455" x2="35.638" y1="21.386" x1="19.863" id="713089ef-0e3f-4509-894a-66931f825503_comp-lk6v3ld3_r_comp-lxk6zore">
                <stop stop-opacity="0"></stop>
                <stop offset="1"></stop>
            </linearGradient>
            <linearGradient gradientUnits="userSpaceOnUse" y2="11.755" x2="58.784" y1="64.366" x1="60.511" id="3413a9de-3590-4af6-a45d-f18324222c14_comp-lk6v3ld3_r_comp-lxk6zore">
                <stop stop-color="#0047FF"></stop>
                <stop stop-color="#22E3FD" offset="1"></stop>
            </linearGradient>
            <linearGradient gradientUnits="userSpaceOnUse" y2="11.755" x2="58.784" y1="64.366" x1="60.511" id="f946b5e3-3591-4c07-b183-a26714693455_comp-lk6v3ld3_r_comp-lxk6zore">
                <stop stop-color="#0047FF"></stop>
                <stop stop-color="#22E3FD" offset="1"></stop>
            </linearGradient>
            <clipPath id="ae7b990e-41fd-437e-94ab-91ff7e158c98_comp-lk6v3ld3_r_comp-lxk6zore">
                <path fill="#ffffff" d="M238 0v67H0V0h238z"></path>
            </clipPath>
        </defs>
    </g>
</svg>
